<svg width="15" height="17" viewBox="0 0 15 17" fill="none" xmlns="http://www.w3.org/2000/svg">
<path d="M4.67969 13.2252C1.96664 13.2252 1.0565 15.5919 0.679688 16.7252H10.2884C9.83089 15.8079 8.21694 14.0825 6.17969 13.4582M4.67969 13.2252C5.19678 13.2252 5.69997 13.3111 6.17969 13.4582M4.67969 13.2252C4.83908 10.8283 6.07437 6.15739 8.36772 3.40339M9.72483 2.11552C6.89875 4.38202 9.15795 7.6594 9.15795 7.6594C9.15795 7.6594 9.8721 5.80362 10.0654 4.19029M9.72483 2.11552C10.122 2.51367 10.1701 3.31641 10.0654 4.19029M9.72483 2.11552C9.72483 2.61521 9.81242 3.37752 10.0654 4.19029M9.72483 2.11552C10.1443 2.11552 10.4859 2.28687 10.7641 2.56598M9.72483 2.11552C9.88723 2.27831 10.2828 2.43101 10.7641 2.56598M9.72483 2.11552C11.9857 0.98229 13.6797 3.12644 13.6797 3.12644C13.6797 3.12644 11.958 2.90076 10.7641 2.56598M9.72483 2.11552C10.4785 1.54892 11.7579 1.31256 10.8536 0.859271C9.94925 0.40598 9.72483 1.17118 9.72483 2.11552ZM9.72483 2.11552C9.72483 1.73781 9.03928 0.413749 8.02751 1.42665C7.4623 1.9925 7.08548 2.74869 7.4623 3.12644L9.72483 2.11552ZM9.72483 2.11552C9.23749 2.46448 8.78509 2.90219 8.36772 3.40339M10.0654 4.19029C10.3862 5.22082 10.9728 6.33247 11.984 7.09273C11.984 7.09273 11.9851 3.79116 10.7641 2.56598M6.17969 13.4582C5.70359 11.743 5.47467 7.33082 8.36772 3.40339M11.2325 9.67343C10.8104 9.80692 10.4931 10.0013 10.2562 10.229M11.2325 9.67343C11.3984 9.99772 11.26 10.4838 11.0106 10.9779M11.2325 9.67343C11.1276 9.96931 11.0224 10.4402 11.0106 10.9779M11.2325 9.67343C11.4961 9.76694 11.6747 9.94455 11.7909 10.1718M11.2325 9.67343C11.3004 9.80602 11.5168 9.98462 11.7909 10.1718M11.2325 9.67343C12.8911 9.50641 13.505 11.1536 13.505 11.1536C13.505 11.1536 12.4707 10.6362 11.7909 10.1718M11.2325 9.67343C11.8251 9.50593 12.6786 9.6512 12.2057 9.1812C11.7327 8.7112 11.4309 9.11426 11.2325 9.67343ZM11.2325 9.67343C11.3119 9.44978 11.1593 8.51295 10.3109 8.88717C9.83685 9.09622 9.44124 9.45999 9.59863 9.76766L11.2325 9.67343ZM11.2325 9.67343C10.853 9.77142 10.4768 9.92975 10.1093 10.1335M11.2325 9.67343C10.8691 9.83183 10.5457 10.0193 10.2562 10.229M11.2325 9.67343C9.96897 9.99741 8.05008 10.1398 6.67963 13.7252C7.00451 13.8404 7.40925 14.0315 7.67976 14.2255C8.19851 12.9099 8.79607 11.2866 10.2562 10.229M10.2562 10.229C9.22913 11.216 9.71169 12.8297 9.71169 12.8297C9.71169 12.8297 10.5503 11.8901 11.0106 10.9779M11.0106 10.9779C10.9957 11.6596 11.1307 12.4486 11.6063 13.1242C11.6063 13.1242 12.3007 11.1695 11.7909 10.1718" stroke="url(#paint0_linear_520_104)" stroke-width="0.5"/>
<defs>
<linearGradient id="paint0_linear_520_104" x1="7.17969" y1="0.725159" x2="7.17969" y2="16.7252" gradientUnits="userSpaceOnUse">
<stop stop-color="#E8DDB8"/>
<stop offset="1" stop-color="#B8B599"/>
</linearGradient>
</defs>
</svg>
