<svg width="262" height="58" viewBox="0 0 262 58" fill="none" xmlns="http://www.w3.org/2000/svg">
    <path class="logo__l" d="M0.149414 57.9732V0.231326H4.27384V53.8488H37.1867V57.9732H0.149414Z" fill="white"/>
    <path d="M52.7101 57.9732V0.231326H90.5723V4.35575H57.1157V53.8488H90.5723V57.9732H52.7101Z" fill="white"/>
    <path d="M257.085 54.3061V0.229492H261.209V57.9713H224.162V53.8469L257.085 54.3061Z" fill="white"/>
    <path d="M127.569 57.9732L103.813 0.231385H108.35L124.352 38.671C125.122 40.5407 125.81 42.2455 126.415 43.7852C127.02 45.27 127.597 46.6998 128.147 48.0746C128.091 47.9341 129.569 51.8508 129.569 51.8508C130.119 53.2806 130.352 53.8488 130.352 53.8488C130.352 53.8488 131.089 52.1166 131.859 50.1368C132.629 48.1021 133.371 46.1774 134.086 44.3627C134.801 42.5479 135.653 40.4857 136.643 38.176L153.141 0.231385H157.678L132.766 57.9732H127.569Z"
          fill="url(#paint0_linear_450_1815)"/>
    <path d="M75.4824 26.0731V30.1975H90.5725V26.0731H75.4824Z" fill="url(#paint1_linear_450_1815)"/>
    <path d="M208.783 57.9732V0.231323H170.921V4.35575H204.378V53.8488H170.921V57.9732H208.783Z" fill="white"/>
    <path d="M186.012 26.073V30.1974H170.922V26.073H186.012Z" fill="url(#paint2_linear_450_1815)"/>
    <defs>
        <linearGradient id="paint0_linear_450_1815" x1="130.679" y1="0.229492" x2="130.679" y2="57.9732"
                        gradientUnits="userSpaceOnUse">
            <stop stop-color="#FFFDE8"/>
            <stop offset="1" stop-color="#AA986A"/>
        </linearGradient>
        <linearGradient id="paint1_linear_450_1815" x1="83.0275" y1="26.0731" x2="83.0275" y2="30.1975"
                        gradientUnits="userSpaceOnUse">
            <stop stop-color="#FFFDE8"/>
            <stop offset="1" stop-color="#AA986A"/>
        </linearGradient>
        <linearGradient id="paint2_linear_450_1815" x1="178.467" y1="26.073" x2="178.467" y2="30.1974"
                        gradientUnits="userSpaceOnUse">
            <stop stop-color="#FFFDE8"/>
            <stop offset="1" stop-color="#AA986A"/>
        </linearGradient>
    </defs>
</svg>
