<svg width="32" height="14" viewBox="0 0 32 14" fill="none" xmlns="http://www.w3.org/2000/svg">
<rect width="32" height="14" rx="3" fill="#B45A5A"/>
<path d="M6.56934 9V4.8H7.11334V5.944L7.05734 5.744C7.17468 5.424 7.37201 5.18133 7.64934 5.016C7.92668 4.84533 8.27068 4.76 8.68134 4.76V5.312C8.66001 5.312 8.63868 5.312 8.61734 5.312C8.59601 5.30667 8.57468 5.304 8.55334 5.304C8.11068 5.304 7.76401 5.44 7.51334 5.712C7.26268 5.97867 7.13734 6.36 7.13734 6.856V9H6.56934ZM11.4627 9.04C11.0254 9.04 10.6414 8.94933 10.3107 8.768C9.98005 8.58133 9.72139 8.328 9.53472 8.008C9.34805 7.68267 9.25472 7.312 9.25472 6.896C9.25472 6.48 9.34272 6.112 9.51872 5.792C9.70005 5.472 9.94539 5.22133 10.2547 5.04C10.5694 4.85333 10.9214 4.76 11.3107 4.76C11.7054 4.76 12.0547 4.85067 12.3587 5.032C12.6681 5.208 12.9107 5.45867 13.0867 5.784C13.2627 6.104 13.3507 6.47467 13.3507 6.896C13.3507 6.92267 13.3481 6.952 13.3427 6.984C13.3427 7.01067 13.3427 7.04 13.3427 7.072H9.68672V6.648H13.0387L12.8147 6.816C12.8147 6.512 12.7481 6.24267 12.6147 6.008C12.4867 5.768 12.3107 5.58133 12.0867 5.448C11.8627 5.31467 11.6041 5.248 11.3107 5.248C11.0227 5.248 10.7641 5.31467 10.5347 5.448C10.3054 5.58133 10.1267 5.768 9.99872 6.008C9.87072 6.248 9.80672 6.52267 9.80672 6.832V6.92C9.80672 7.24 9.87605 7.52267 10.0147 7.768C10.1587 8.008 10.3561 8.19733 10.6067 8.336C10.8627 8.46933 11.1534 8.536 11.4787 8.536C11.7347 8.536 11.9721 8.49067 12.1907 8.4C12.4147 8.30933 12.6067 8.17067 12.7667 7.984L13.0867 8.352C12.9001 8.576 12.6654 8.74667 12.3827 8.864C12.1054 8.98133 11.7987 9.04 11.4627 9.04ZM16.2508 9.04C15.8348 9.04 15.4615 8.94933 15.1308 8.768C14.8055 8.58133 14.5495 8.328 14.3628 8.008C14.1762 7.68267 14.0828 7.312 14.0828 6.896C14.0828 6.47467 14.1762 6.104 14.3628 5.784C14.5495 5.464 14.8055 5.21333 15.1308 5.032C15.4615 4.85067 15.8348 4.76 16.2508 4.76C16.6082 4.76 16.9308 4.82933 17.2188 4.968C17.5068 5.10667 17.7335 5.31467 17.8988 5.592L17.4748 5.88C17.3308 5.66667 17.1522 5.50933 16.9388 5.408C16.7255 5.30667 16.4935 5.256 16.2428 5.256C15.9442 5.256 15.6748 5.32533 15.4348 5.464C15.1948 5.59733 15.0055 5.78667 14.8668 6.032C14.7282 6.27733 14.6588 6.56533 14.6588 6.896C14.6588 7.22667 14.7282 7.51467 14.8668 7.76C15.0055 8.00533 15.1948 8.19733 15.4348 8.336C15.6748 8.46933 15.9442 8.536 16.2428 8.536C16.4935 8.536 16.7255 8.48533 16.9388 8.384C17.1522 8.28267 17.3308 8.128 17.4748 7.92L17.8988 8.208C17.7335 8.48 17.5068 8.688 17.2188 8.832C16.9308 8.97067 16.6082 9.04 16.2508 9.04Z" fill="white"/>
<circle cx="24" cy="7" r="2" fill="white"/>
</svg>
