<svg xmlns="http://www.w3.org/2000/svg" xmlns:xlink="http://www.w3.org/1999/xlink" viewBox="0 0 1505.16 3122.98"><defs><style>.cls-1,.cls-14,.cls-15,.cls-17,.cls-8{stroke:#000;}.cls-1,.cls-13,.cls-14,.cls-17,.cls-8{stroke-miterlimit:10;}.cls-1,.cls-8{stroke-width:0.5px;}.cls-1{fill:url(#Безымянный_градиент_57);}.cls-2{fill:#cecece;}.cls-3{fill:#c98c63;}.cls-4{fill:#b27b56;}.cls-5{fill:#eda672;}.cls-6{fill:#efb289;}.cls-7{fill:#6f949e;}.cls-8{fill:url(#Безымянный_градиент_57-2);}.cls-9{fill:#6d99a0;}.cls-10{fill:#748d91;}.cls-11{fill:#87bcc1;}.cls-12{font-size:19px;}.cls-12,.cls-16{font-family:RussoOne-Regular, Russo One;}.cls-13,.cls-14,.cls-15,.cls-17{fill:none;}.cls-13{stroke:#54371f;stroke-width:3px;}.cls-14,.cls-15{stroke-width:7px;}.cls-15{stroke-linejoin:bevel;}.cls-16{font-size:46px;}.cls-17{stroke-width:8px;}</style><linearGradient id="Безымянный_градиент_57" x1="1267.28" y1="107.67" x2="1240.94" y2="3345.59" gradientUnits="userSpaceOnUse"><stop offset="0" stop-color="#e29d49"/><stop offset="1" stop-color="#674209"/></linearGradient><linearGradient id="Безымянный_градиент_57-2" x1="1610" y1="2354.07" x2="1610" y2="2354.07" xlink:href="#Безымянный_градиент_57"/></defs><g id="Слой_1" data-name="Слой 1"><path class="cls-1" d="M1798.4,1124.71c3.22-22.53,21.45-20.92,40.22-17.16s19.31,9.65,8.05,22.52-5.9,30.57-20.38,16.09S1795.18,1147.24,1798.4,1124.71ZM1999,1237.34c2.69-20.38,19.85-13.94-3.75-49.88s-8.58-62.75-24.67-67.58-6.44,24.67-28.43,18.78,7-11.27-17.16-9.66-27.35,17.7-23.6,36.47,12.34,17.7,34.33,30,39.69,16.62,34.32,47.73-10.19,61.14,14,37S1996.3,1257.72,1999,1237.34ZM1913.71,1350c-1.61,23.6,15,48.8,18.77,24.67s-10.73-55.78-10.73-55.78S1915.32,1326.37,1913.71,1350Zm-163.83,569.91c-16.37-18.72-26.8,7.95-45,23.47s-39.5,13.62-63.37-.57-33.24,8-39,41.26,19,44.35,19,44.35,17,10.53,31.66.52,16.68-1,35.48,2.86,26.79,23.32,51.72,15.58,12.75-26.81,30.06-67.28S1766.25,1938.6,1749.88,1919.88Zm123.41-60.43c-17.77,2.24-30.41,14.36-31.54-1.42s6.33-23.53,6.36-34.1-11.4-11.16-11.4-11.16-16.72-2.22-19.32,20.89,6.81,35.38,18.65,39.71,13.61,25.71,24.41,17S1891.05,1857.21,1873.29,1859.45Zm-242.45,869.84c-10.9-5.11-25.25-6.38-25.25-6.38s-11.42,18.09-23.73,11.31-28.69-2.56-18.15,6.64,38,25.6,49.16,16.26S1641.75,2734.39,1630.84,2729.29Zm-228.43,303.44a50.92,50.92,0,0,0-22.27-28.32l-17.47-30s-3.28,13.65-27.51,7.36-47.27-25.9-70-14.49-24.43,13.31-36.84,25.12-32.31,3.31-39.82,23.82,22.47,14.4,25.47,27.06,2.91,36.92,31.22,32.21,47.54-6.09,82.94,2.23,46.37-10.33,61.73-14.64,24.08,2.14,24.08,2.14l6.7-28.84S1408.4,3052.37,1402.41,3032.73Zm20.94,199.66c12.64,8.87,23.81,5.22,31.34-3.93s10-19.25,21.7-23.37,19.38-26.16,19.38-26.16-14.85,4.36-40.11,21.22S1410.71,3223.51,1423.35,3232.39Zm-390.78-24.17s-21.45-9.08-30.53,24.76-9.08,52,11.14,33.43,15.68-24.76,18.16-38.8S1038.35,3210.28,1032.57,3208.22ZM1779.07,2316c-16.79-2.34-17.18-27.32-5.08-76.12s35.92-117.5,3.91-100.71-33.19,5.85-51.53,21.08,10.15,14.44-8.2,39.81-6.64,46.85-27.33,57.39c-2.09,1.07-56.52,9.92-43,20.21,4.5,3.42-7.19,32.38-9.38,32.62-2.56.3,16.12-22.12-1.12-28.5-11.68-4.31,29.5-21,27.84-21.63-9.78-3.54-16.47-13.17-15.37-28.47,2-26.93-2.73-42.55-28.1-52.31s-33.18-16.78-34.35-37.86-26.39-26.31,2.78-42.23c37.55-20.48-36.84-98.44-36.84-98.44s-59.23-49.64-69.59-78.55-29.46-43.37-17.46-48.55,6.82-38.45-6.27-33.27-11.73-.55-10.64-24.55,16.09-12,19.37-20.72,20.45-16.37,13.36-26.18-33.82-3.82-33.27-24.82,21.41.16,17.14-17.26-17-6.09-6.92-37.57,17.11-39,57.66-63.53,65.76-30.77,92.55-15.77,9.89,34.24,32.57,38.37,55.87-2.12,39.68-16.74-25.23,6-36-10.59-12.6-28.34-31.38-38.25-42.1-44.4-47.8-79,19.55-173.39,47-212.13,38-49.56,15.82-68.12-35.8-25.23-19.33-49.49,6.5-26.66,4-36.17,24,15.39,13.85,32.24-25.27,16.59,9.48,46.22,51.91,50.88,75,48.09-10.33-11-2.76-28.38,6.82-26.46-1.86-52.52,16.81-40.19,24.52-73.23,16.75-31,36.84-24,34.4,2.13,32.22-7.17,4.31-4.78-2.41-22.61-4.77-12.39-25.73-11.43-34.36-31.14-34.36-31.14c-7.6-21.19-6.89-56.57,5.22-71.51s32.18-5.57,30.75-26.73-11.76-26-24.29-23.34-23.63-9.91-26.18-24.2-2.7-13.76-17.29-6.47-24.87,3.88-27.38-7.7-10.71-15.65-15.51-1.15,22.87,9.81,5.33,31-49.82,74.08-66.64,71.22-18.92,8.14-55.46,26.6-36.63,3.79-36.3-8.63-6.46-.93-18.37,2.84.93-1.33-9.43,17.55-17.82,20.22-20.86.72-22.88-31.33-43.13-38.88-84.45-89.49-90.21-109.53c-16-55.58-21.08-63-11.78-96.8s-15.72-52.08-42.59-43-8.27,17.31-40.54,33.22-68.78,6-54.49,26.7,21.81,48,16.19,56.5-.22-30.4-22.48-39-23.25-8.71-26.12-32.93,22.62-4.09,19.38-20.77,2.25-16.76,4.58-30.63-6-32.82-31.27-17.38-39.75-16.81-31.27-74.25,31,14,20.16-43.81-10.7-30.94-29.54-31.48-26.24-25.84-23.61-69.47.45-115-30.8-118.48S973.21,331,941.16,290.9s-48.36-63.89-62.08-45-19.74,41.5-36.4,40.87.54-5.65-7.27,20.26-33,22.3-33,22.3,33.69.59,22-30-5.52-26.41,12.49-30.58,30.6-19.39,12.91-32.9S836,198,814.05,203.88s-56.17,7.08-33.86-4.94,33.12-33.31,8-36.42-96.13-11.15-96.13-11.15L677.68,176.3s61,150.72,83.12,277.06,54.3,289.8,39.34,327.48-32.69,53.2-26,90.32S753,948.74,728.66,959.82s-13.3-17.73-32.69-23.27-11.64,18.28-29.93,31-74.8,19.39-79.79,54.86,8.87,55.41,24.94,72,28.3,64,19.94,114.83-17.44,40.08-30.45,52.79-2.66,28.07,19.86,40.63c0,0,44.44-9.26,61,6.23,21.84,20.47,71.43,185.62,56.42,230.67s-20,104.64-61.42,101.91-75.53-42.31-91.91-17.29,42.54,26.23,42.92,41.67c1.52,61.91-8.64,68.77,13.61,92.56s44.18,65.86,26.93,95.46-44.08,22.18-74.49,46.81-33.49-12.33-59-1.65-.55,23.19-19.09,45.23-14.13,39-2.68,57.12-21.51,72.35,33.63,67.37,44.11-20.63,75.07,12.1,47.67,59.41,87.87,51.23,54.43,54.43,55.86,82.54-18.07,138.68-65.48,118.21-38.43-9-70.37-1-17.47,12-49.91-13-37.43-24-53.4-2-3,49.91,26.45,60.39,24.46-23.95,38.43-11.48,34.93,28,20.46,54.9-1.5,72.37,36.93,69.87,13.48,7.49,37.43,35.44,77.36,123.27,62.89,189.15-22.46-2-30,41.92,11,13.47,23,13.47,54.4,47.41,37.43,61.89c-5.48,4.67-8.62,9.71-10.05,14.84-2.26,8.07.28,15.92,1.3,19a43.47,43.47,0,0,0,6.25,12c10.61,15.18,4.81,70.16-26.56,85.46-38,18.55-52.79,2.85-63.72,34.71s-4.28,30.91,23.3,27.11,22.82,10.46,5.23,22.35-20.45,28.53-3.81,52.79,18.55,8.08,46.13-2.38,54.21-23.78,69,1.9-4.76,20.45.47,39,18.55,27.11,0,38.52-11.89,13.32-1.43,28.06,18.55-18.55,32.82,4.76,44.7,17.12,58-8.09-17.12-35.66,11.89-57.54,56.12-53.74,91.78-39.94,27.58-9,38.52-28.06-32.34-14.27-28.53-62.77,19.49-94.16,49.93-164.07,28.53-105.57,82.74-129.34,32.34,13.79,56.59-3.33,8.09-53.74,50.89-57.07,69.57-5.94,74.54,29.26,31.59,87.54,46.48,124.55-9,46,13.54,69.95,24.36,14.89,25.27-9.93,23.92-43.78,37.9-34.75,32.5,48.74,56,58.21,28.43,16.25,31.14,35.65,20.31,15.8,25.27-.45,13.09-59.57-16.24-61.37-53.25-14-53.25-36.1,19.85-.45,25.72-15.35-4.52-54.6-17.6-51-24.37-9.48-10.83-18,41.06-7.22,28-20.76-28-7.67-9.48-39.26,18,18.5,30.24-1.35,8.12-25.28-29.34-24.37-69.94-11.29-68.14-48.29-20.31-20.76-13.09-50.54,7.22-48.74,38.81-53.25,25.73-9.48,13.54-34.75-13.54-29.79,15.34-54.15c18.5-15.61,76.58-81.79,102.84-66.22,5.39,3.2,14.59-24.13,18.74-24.57,2.39-.25-8.46,37.44-23.4,30.13-29.4-14.39-28,33.44-25.52,35.84,18,17.14-14.89,38.81,9,45.57s20.31-15.79,49.64-25.27,36.56-11.28,49.19,14.44,20.31,5.42,31.59,21.21,19.86,38.36,36.11,29.79,14-22.57-11.29-32.95-44.67-23.46-40.61-47.38,20.76-3.61,32.94-14,40.57,8.62,56.19-12.85S1795.85,2318.38,1779.07,2316Z" transform="translate(-502.61 -151.1)"/><rect class="cls-2" x="343.14" y="555.71" width="174.38" height="19.5"/><rect class="cls-2" x="343.14" y="577.3" width="174.38" height="1.85"/><rect class="cls-2" x="343.14" y="551.78" width="174.38" height="1.85"/><path class="cls-3" d="M714.14,2335.2h24.74s20.81-25.45,25.31-38.95,18.56-68.06,10.69-93.94-21.83-50.62-29.2-58.5a33.06,33.06,0,0,0-16.44-9.53s35,32.6,33.26,69.16-28.12,104.83-34.88,112.6S714.14,2335.2,714.14,2335.2Z" transform="translate(-502.61 -151.1)"/><path class="cls-3" d="M672.08,2495.72l54.8,65.47,20.62,53.62,11.25,61.88-2.63,41.62-7.5,17.63-11.06,8.76s16.81-24,13-65.7-28.21-96.4-39.63-115.28-38.15-43.84-38.85-68" transform="translate(-502.61 -151.1)"/><path class="cls-4" d="M740.59,2770.66s14.6-7.72,27.53-1.53,20.26,21.56,20.26,21.56l3,27.37-10.32,12.18s5-3.76.16-16.22-18.71-28.44-18.71-28.44-9.71-14.33-21.92-14.92" transform="translate(-502.61 -151.1)"/><path class="cls-4" d="M771.41,2869.25s3.18-5,12.75,0,8.53,28,7.22,34.22-13.32,21.45-13.32,21.45,5-26.23,1.32-37.76S771.41,2869.25,771.41,2869.25Z" transform="translate(-502.61 -151.1)"/><path class="cls-4" d="M795,3086s9.09-24.19,34.41-9.56,0,46.84,0,46.84S835.44,3083.75,795,3086Z" transform="translate(-502.61 -151.1)"/><path class="cls-5" d="M654.74,1300.16s33.79-10.22,52.64,14,57.93,155.53,58.5,172.4-1.13,48.94-11.26,72.85-24.46,73.4-41.34,78.75-33.75,3.48-33.75,3.48,37.41-5.17,47.53-72.11,10.44-79.87,6.47-103.5c-3.62-21.59-27.28-120.09-50.34-137.81S670.78,1300,654.74,1300.16Z" transform="translate(-502.61 -151.1)"/><path class="cls-5" d="M611.76,1889s42.74,5,55.12-18,24.74-40.5,13.5-59.62a202.19,202.19,0,0,0-23.07-31.85s27.62,52.26,12.51,71S611.76,1889,611.76,1889" transform="translate(-502.61 -151.1)"/><path class="cls-5" d="M617.66,1103.19s14.62,41.34,12.09,74-7,69.76-18,77.34c0,0,10.68-.47,15.48-25.83s13.5-44.2,11.53-57.7S631.73,1104.59,617.66,1103.19Z" transform="translate(-502.61 -151.1)"/><path class="cls-6" d="M679,179.67l2.1-9.32s48.47,119.18,71.26,210.31,64.12,332,60.74,369.33-19.3,45.39-19.3,45.39,14-2.13,3.56-81.44S759.12,442.25,735.5,363.78,679,179.67,679,179.67Z" transform="translate(-502.61 -151.1)"/><path class="cls-7" d="M813.12,3071.74s23.35-31.86,37.69-26.8,32.63,11.53,32.63,11.53l-15.19,11-2,16.59s-27.06,20.44-26.86,19.65-3.2-27.32-14.75-29.63Z" transform="translate(-502.61 -151.1)"/><path class="cls-8" d="M1610,2354.07" transform="translate(-502.61 -151.1)"/><polygon class="cls-9" points="525.95 1920.15 521.45 1903.54 534.39 1890.9 549.58 1903.54 542.23 1917.9 525.95 1920.15"/><path class="cls-9" d="M1038.12,2029.63l-18-18s24.12-27,24.72-43.32,17.85-31.5,24.13,0,20.91,46.69,10.22,61.32-21.94,18-27,14.62S1049.38,2026.81,1038.12,2029.63Z" transform="translate(-502.61 -151.1)"/><path class="cls-10" d="M1115.4,2268.31s-21.48-33.19-33.86-23.63,2.11,30.94-6.82,43.31-35.93,24.75-27.49,45.57,58.92,0,58.92,0,39.52-25.11,31.64-42.09A48.37,48.37,0,0,0,1115.4,2268.31Z" transform="translate(-502.61 -151.1)"/><path class="cls-9" d="M1034.75,1692.13h33.75l60.75-15.75s9,18.56-6.19,21.93-30.66,0-40.08,15.75-42,21.94-48.23,3.38S1034.75,1692.13,1034.75,1692.13Z" transform="translate(-502.61 -151.1)"/><path class="cls-11" d="M766,1446.88l7.78,29.81s35.44,2.25,39.37,0,30.38-20.81,24.76-29.81,1.12-9.57-20.82,0-16.87-1.55-28.12-7S766,1446.88,766,1446.88Z" transform="translate(-502.61 -151.1)"/><path class="cls-11" d="M773.75,1486.25,766,1517.19s27.22,8.44,36.34,2.81,13.07-33.75,13.07-33.75Z" transform="translate(-502.61 -151.1)"/><path class="cls-11" d="M819.88,1483s-5.63,19-4.5,22.91,30.93-3.38,38.24-15.75,11.82-36,9.57-37.69-23.69,5.62-23.69,5.62S828.31,1479.82,819.88,1483Z" transform="translate(-502.61 -151.1)"/><path class="cls-11" d="M790.67,1549.25c0-.56-21.23-6.19-24.7,5.06s-29.35,19.69-15.85,27,34.88-4.43,36.57-12.06S790.67,1549.25,790.67,1549.25Z" transform="translate(-502.61 -151.1)"/><path class="cls-11" d="M790.67,1580.19s-11.86,10.69-17.48,10.12,11.81,27.57,20.25,23.07S790.67,1580.19,790.67,1580.19Z" transform="translate(-502.61 -151.1)"/><path d="M929.76,714.33c-1.08-1.73-18-2.38-18-2.38l-16.44-23.58-5.62-1.81L898,711.89l-31.26,2.62-3.82-3h-2.6l3.47,5-3.47,5.05h2.6l3.82-3L898,721.24l-8.25,25.32,5.62-1.8,16.44-23.58s16.88-.65,18-2.38.65-2.24.65-2.24S930.84,716.06,929.76,714.33Z" transform="translate(-502.61 -151.1)"/><text class="cls-12" transform="translate(1116.78 1839.56)">coconut island</text></g><g id="Слой_2" data-name="Слой 2"><path class="cls-13" d="M1014.12,2157.31l-8.62-8.62v-14.25l-13.12-32.63,25.12-22.5,27.34-1.5,14.66,29.25,35.6,3.38s15.4,13.87,15.4,15,9,42.7,9,42.7l16.53,25.17,9.56,30.38-9.24,2.37-14.94,3.82-37.13,2.25-5.49,4.5-27.7-19.2h-22.5l-2.81-33.12.56-14.06Z" transform="translate(-502.61 -151.1)"/><path class="cls-13" d="M1132.62,2236.63" transform="translate(-502.61 -151.1)"/><path class="cls-13" d="M1136.32,2226.06l-3.7,10.57,1.85,11.25,11.09,2.81,23.06,58.5s18.57,2.25,19.13,3.94,4.37,33.75,4.37,33.75l-11.68,12.37-21.38,3.94s3.25,39.37,3.31,42.47,10.75,21.65,10.75,21.65l-7.78,16.32-3,5.06" transform="translate(-502.61 -151.1)"/><polyline class="cls-13" points="642.95 2072.59 651.24 2079.9 672.2 2079.9 694.14 2072.59 704.83 2074.95 711.02 2091.72 731.27 2118.15 745.89 2141.78"/><path class="cls-13" d="M1192.12,2335.06s11.38,2.82,11.38,0,12.94-32.58,12.94-32.58l17.44-33.23" transform="translate(-502.61 -151.1)"/><polyline class="cls-13" points="735.2 2207.03 827.45 2210.97 857.27 2240.13"/><polyline class="cls-13" points="866.57 2123.92 840.39 2147.97 827.45 2210.97"/><path class="cls-13" d="M1244.23,2302.48s38.58,12.54,40.83,13.56,57.94-17,57.94-17" transform="translate(-502.61 -151.1)"/><path class="cls-13" d="M1349.62,2405.66s49.07,28.4,51.32,29.53,32.06,32.06,32.06,32.06l28.69-30.79,19.12-30.8,6.75-38.53,12.22-43.88" transform="translate(-502.61 -151.1)"/><polyline class="cls-13" points="997.17 2172.15 988.52 2126.59 990.77 2024.21 968.27 2011.09 931.64 2020.65 917.64 2034.71 851.27 2038.46 816.02 2052.34"/><polyline class="cls-13" points="956.64 1948.46 916.14 1952.59 875.27 1913.96 830.27 1913.96 816.02 1887.71 814.14 1858.46 805.06 1854.5"/><polyline class="cls-13" points="580.6 1321.05 552.39 1358.21 518.08 1421.78 494.45 1425.15 459.46 1515.26"/><path class="cls-13" d="M895.81,1156.06l-3.41,32.07,36,56.25s-8.44,28.68-7.32,30.93,31.5,8.24,31.5,8.24l9,20.45-12.93,16.88,7.31,20.25s9.56-14.07,10.69-11.25,9.56,23.06,9.56,23.06" transform="translate(-502.61 -151.1)"/><path class="cls-13" d="M1050.57,750l-183.45,5L834.5,785.38s-19.69,31.5-19.69,33.18-17.43,60.75-17.43,60.75" transform="translate(-502.61 -151.1)"/><path class="cls-14" d="M772.41,165.46l-13.13,32.85,19.7,62.4,16.43,19.71-9,62.4,37,50.09,3.29,46,111.67.82,29.56,18.88,89.49,1.65,28.74,70.61L1075.4,630.2l-17.24,28.74-15.6,187.21,48.44,85.4,11.5,75.54-7.39,71.43-59.94,211.85-8.68,59.61,68.08,146.63,100.15,125.68,86.41,83.79,6.54,36.66,102.78,89,30.76,24.22,43.21,100.81,8.51,113.24-53,139.43,7.82,93-35.88,1.77-12.85,47-28.36,59.36-3.54,15.07-37.21,43-18.17,23.48-118.29,88.61-28.35,43.85-3.55,56.27-32.34,39.87-6.64,26.14-47.25,137-43.76,106.59-20.07,105.23-86.28,45.27-11.68,20.42-27.07,16.8-9.13,21.07L840,3196.5l2-18.54,1.05-22.2,4.71-10.52-11.07-13.32,31.69-26.73,2.7-36.1,12.79-9.38,28.74-5.68,1.47-52.44-16-45.48-27,8-28.83.08S831,2975.81,829.21,2980s-19.84-9.55-19.84-9.55l9.32-43.4,16.15-14.5-6.33-9.42-4.14-25-9-9.5-10.12-26.41-17,2L799,2826l-6.51-45.8-34.36-52.32,6.26-27.27-4.33-58.94-10.25-53.94,9.65-16.08-8.74-20.59-19.62,4.9-45-49.75-8.67-13.38L689.57,2452l45.77-68.81,23.39-19.41-15.11-20.5c4.16-2.28,11.25-21.77,14.47-27.56,4.13-7.44,20.45-18.68,20.45-18.68l22.35-72.14-2.53-27.2-20.66-3-7.8-25.3-11.81-18.34-20-24.87-10.12-7.38-29.51,1.26s-26.35-10.12-30.57-11.59-17.28-28.25-17.28-28.25-16.66-6.32-17.92-5.9-9.61-19.77-9.61-19.77l-6.3-18,10.58-14.63,1.8-26.09,9.67-16.42-8.1-25.87,14.85-38.92,39.1-28.61,14.91-6.43,1.15-30.06-14-5.51.69-51.17-12.62-5.51-21.57-18.82,8.46-14.64-9.41-9.21-10.44-.82,3.07-26.19,72.24-35.82,55.26-8,18.83-27.22,18-8.74,1.09-21.82,51-.54,57,6L973.43,1678l89.73,3.27,73.9-19.09,37.67,1.79,16.37,14.83,33,8.79,22.06-12.58" transform="translate(-502.61 -151.1)"/><polyline class="cls-14" points="307.73 1464.99 317.27 1407.71 370.14 1335.71 388.19 1278.71 391.52 1268.21 434.27 1268.21 434.27 1254.71 470.27 1236.71 477.02 1204.09 523.88 1198.88"/><polyline class="cls-14" points="566.97 1017.64 482.64 986.97 392.64 1002.3 337.52 986.97 292.52 936.34 299.27 911.59 275.64 890.22 275.64 866.59 240.77 866.59 217.14 922.84 176.64 942.12 130.52 942.12 141.77 1009.47 137.27 1048.84 130.52 1084.84 114.15 1109.59 114.15 1119.71 153.02 1103.96 167.64 1119.71 175.52 1108.46 204.77 1109.59 213.77 1135.46 247.52 1198.88 267.77 1224.34 267.77 1242.34 307.73 1265.96 351.02 1254.71 391.52 1268.21"/><polyline class="cls-14" points="539.95 695.05 501.77 743.97 406.14 743.97 331.89 729.34 294.77 728.22 277.89 758.59 239.64 809.22 240.77 866.59"/><path class="cls-14" d="M1086.87,924.26h45.75l27-14.57h51.76l21.37,32.62,70.87,16.88L1370,997.44l72,65.25,30.93,51.75,27.57,14,46.12,52.36-48.37,83.25-4.5,54.8s-5.63,57.69-5.63,65.57-20.24,20.26-20.24,20.26l-4.5,61.87-58.5,81-2.26,20.25-66.37,31.5H1289l-58.07,58.1" transform="translate(-502.61 -151.1)"/><polyline class="cls-15" points="887.84 1680.67 801.39 1862.21 734.64 2006.21 734.64 2048.97 745.89 2123.22 734.64 2197.47 718.89 2260.47 660.39 2300.97 624.39 2300.97 542.23 2381.97 502.05 2442.72 521.45 2538.06 560.27 2590.3 581.49 2649.22 495.3 2618.22 424.42 2619.06 356.08 2631.72 291.4 2639.63"/><polyline class="cls-14" points="510.43 2835.66 479.27 2824.65 433.14 2845.47 411.52 2850.49"/><text class="cls-16" transform="translate(473.64 1706.96)">PHUKET</text><polyline class="cls-17" points="1195.61 2254.56 1161.86 2188.75 1115.45 2164.94 1010.83 2176.09 925.11 2151.38"/><polyline class="cls-17" points="295.75 2046.55 338.36 2059.65 354.39 2046.55 426.11 2053.1 441.3 2036.03 446.36 2047.84 515.55 2006.5 542.23 1979.5 571.24 1992.15 593.17 2014.93 645.49 2019.57 682.61 2041.93 734.64 2036.87 810.86 2052.06 889.23 2153.16"/><line class="cls-17" x1="603.16" y1="2321.9" x2="722.31" y2="2391.03"/><path class="cls-17" d="M1560.33,2913.31l-33.95-31.5H1509.5l-36.57-57.37v-69.75l14.07-31.78-20.25-34.6H1442l-50.16-77.62h-42.09s-10.13-86.63-10.13-90,14.63-73.13,14.63-73.13l-7.16-21.91-17.68,20.41-104.49-40.4" transform="translate(-502.61 -151.1)"/></g></svg>